<svg xmlns="http://www.w3.org/2000/svg" width="165" height="38" viewBox="0 0 165 38" fill="none"><path d="M62.8 15.47C62.8 17.04 62.48 18.355 61.84 19.415C61.21 20.465 60.34 21.255 59.23 21.785C58.13 22.315 56.87 22.58 55.45 22.58H51.055V19.07C51.325 19.05 51.74 19.03 52.3 19.01C52.86 18.99 53.405 18.975 53.935 18.965C54.475 18.945 54.845 18.935 55.045 18.935C55.845 18.935 56.45 18.745 56.86 18.365C57.27 17.985 57.545 17.53 57.685 17C57.825 16.46 57.895 15.95 57.895 15.47C57.895 15 57.825 14.5 57.685 13.97C57.545 13.43 57.27 12.97 56.86 12.59C56.45 12.21 55.845 12.02 55.045 12.02C54.745 12.02 54.445 12.02 54.145 12.02C53.845 12.01 53.495 12 53.095 11.99V29C52.695 29.07 52.27 29.115 51.82 29.135C51.38 29.165 51 29.18 50.68 29.18C50.39 29.18 50.015 29.165 49.555 29.135C49.095 29.115 48.67 29.07 48.28 29V8.66L48.49 8.45C49.77 8.42 50.965 8.395 52.075 8.375C53.195 8.345 54.32 8.33 55.45 8.33C56.87 8.33 58.13 8.59 59.23 9.11C60.34 9.62 61.21 10.405 61.84 11.465C62.48 12.515 62.8 13.85 62.8 15.47ZM66.8922 23.03V19.805H72.5472V19.46C72.5472 19 72.4822 18.58 72.3522 18.2C72.2222 17.81 72.0122 17.5 71.7222 17.27C71.4322 17.03 71.0522 16.91 70.5822 16.91C69.8522 16.91 69.3372 17.21 69.0372 17.81C68.7472 18.41 68.6022 19.335 68.6022 20.585V21.995C68.6022 22.685 68.6622 23.325 68.7822 23.915C68.9022 24.495 69.1572 24.965 69.5472 25.325C69.9372 25.685 70.5322 25.865 71.3322 25.865C72.0122 25.865 72.6772 25.78 73.3272 25.61C73.9872 25.43 74.6172 25.215 75.2172 24.965C75.5672 25.315 75.8472 25.75 76.0572 26.27C76.2672 26.79 76.4072 27.28 76.4772 27.74C75.7172 28.29 74.8072 28.71 73.7472 29C72.6972 29.3 71.6372 29.45 70.5672 29.45C69.2572 29.45 68.1672 29.23 67.2972 28.79C66.4372 28.35 65.7572 27.76 65.2572 27.02C64.7572 26.28 64.4022 25.445 64.1922 24.515C63.9922 23.575 63.8922 22.61 63.8922 21.62C63.8922 20.11 64.1172 18.75 64.5672 17.54C65.0272 16.32 65.7522 15.355 66.7422 14.645C67.7322 13.935 69.0222 13.58 70.6122 13.58C71.9222 13.58 73.0422 13.86 73.9722 14.42C74.9122 14.98 75.6272 15.74 76.1172 16.7C76.6172 17.66 76.8672 18.74 76.8672 19.94C76.8672 20.61 76.8372 21.17 76.7772 21.62C76.7172 22.06 76.6122 22.53 76.4622 23.03H66.8922ZM80.29 12.335C80.29 11.285 80.48 10.555 80.86 10.145C81.25 9.725 81.905 9.515 82.825 9.515H84.655L84.865 9.725V24.17C84.865 24.62 84.965 24.97 85.165 25.22C85.375 25.46 85.72 25.58 86.2 25.58H87.88C88.13 26.3 88.255 27.04 88.255 27.8C88.255 27.97 88.245 28.15 88.225 28.34C88.205 28.53 88.175 28.7 88.135 28.85C87.585 28.93 86.95 29 86.23 29.06C85.51 29.12 84.85 29.15 84.25 29.15C82.89 29.15 81.89 28.815 81.25 28.145C80.61 27.465 80.29 26.41 80.29 24.98V12.335ZM88.42 14C88.56 14.53 88.63 15.075 88.63 15.635C88.63 16.255 88.56 16.82 88.42 17.33L82.825 17.24L77.935 17.33C77.805 16.82 77.74 16.255 77.74 15.635C77.74 15.075 77.805 14.53 77.935 14L82.96 14.075L88.42 14ZM105.896 15.47C105.896 17.04 105.576 18.355 104.936 19.415C104.306 20.465 103.436 21.255 102.326 21.785C101.226 22.315 99.9657 22.58 98.5457 22.58H94.1507V19.07C94.4207 19.05 94.8357 19.03 95.3957 19.01C95.9557 18.99 96.5007 18.975 97.0307 18.965C97.5707 18.945 97.9407 18.935 98.1407 18.935C98.9407 18.935 99.5457 18.745 99.9557 18.365C100.366 17.985 100.641 17.53 100.781 17C100.921 16.46 100.991 15.95 100.991 15.47C100.991 15 100.921 14.5 100.781 13.97C100.641 13.43 100.366 12.97 99.9557 12.59C99.5457 12.21 98.9407 12.02 98.1407 12.02C97.8407 12.02 97.5407 12.02 97.2407 12.02C96.9407 12.01 96.5907 12 96.1907 11.99V29C95.7907 29.07 95.3657 29.115 94.9157 29.135C94.4757 29.165 94.0957 29.18 93.7757 29.18C93.4857 29.18 93.1107 29.165 92.6507 29.135C92.1907 29.115 91.7657 29.07 91.3757 29V8.66L91.5857 8.45C92.8657 8.42 94.0607 8.395 95.1707 8.375C96.2907 8.345 97.4157 8.33 98.5457 8.33C99.9657 8.33 101.226 8.59 102.326 9.11C103.436 9.62 104.306 10.405 104.936 11.465C105.576 12.515 105.896 13.85 105.896 15.47ZM121.079 24.725C121.079 25.205 121.154 25.64 121.304 26.03C121.464 26.42 121.669 26.705 121.919 26.885C121.839 27.305 121.654 27.745 121.364 28.205C121.074 28.665 120.784 29.01 120.494 29.24C119.164 29.21 118.149 28.755 117.449 27.875C116.749 26.985 116.399 25.915 116.399 24.665V14.03C116.719 13.97 117.089 13.925 117.509 13.895C117.929 13.865 118.339 13.85 118.739 13.85C119.129 13.85 119.529 13.865 119.939 13.895C120.359 13.925 120.739 13.97 121.079 14.03V24.725ZM108.194 17.78C108.194 17.19 108.134 16.64 108.014 16.13C107.904 15.62 107.714 15.175 107.444 14.795C107.784 14.505 108.209 14.265 108.719 14.075C109.229 13.885 109.779 13.79 110.369 13.79C111.309 13.79 111.959 14.04 112.319 14.54C112.689 15.04 112.874 15.755 112.874 16.685V23.075C112.874 23.755 112.964 24.255 113.144 24.575C113.324 24.895 113.664 25.055 114.164 25.055C114.474 25.055 114.829 24.975 115.229 24.815C115.639 24.645 116.044 24.375 116.444 24.005C116.854 23.625 117.209 23.12 117.509 22.49V26.585C116.809 27.275 116.044 27.895 115.214 28.445C114.394 28.995 113.454 29.27 112.394 29.27C111.474 29.27 110.704 29.045 110.084 28.595C109.464 28.135 108.994 27.505 108.674 26.705C108.354 25.895 108.194 24.97 108.194 23.93V17.78ZM127.884 20.24C128.244 19.76 128.654 19.265 129.114 18.755C129.574 18.235 129.974 17.79 130.314 17.42L130.224 17.27C129.854 17.31 129.449 17.35 129.009 17.39C128.569 17.42 128.129 17.445 127.689 17.465C127.259 17.485 126.859 17.495 126.489 17.495H124.179C124.119 17.265 124.074 17.025 124.044 16.775C124.024 16.525 124.014 16.29 124.014 16.07C124.014 15.71 124.039 15.36 124.089 15.02C124.139 14.67 124.199 14.34 124.269 14.03H134.739C134.929 14.59 135.074 15.075 135.174 15.485C135.284 15.895 135.339 16.265 135.339 16.595C135.339 16.805 135.304 17.04 135.234 17.3C135.164 17.55 135.054 17.775 134.904 17.975L131.229 22.82C130.889 23.26 130.524 23.725 130.134 24.215C129.744 24.695 129.354 25.13 128.964 25.52L129.054 25.67C129.484 25.61 129.889 25.565 130.269 25.535C130.659 25.505 131.044 25.49 131.424 25.49H132.459C132.919 25.49 133.394 25.46 133.884 25.4C134.384 25.33 134.844 25.195 135.264 24.995C135.434 25.395 135.554 25.74 135.624 26.03C135.704 26.31 135.744 26.61 135.744 26.93C135.744 27.55 135.559 28.05 135.189 28.43C134.819 28.81 134.169 29 133.239 29H124.194C124.004 28.45 123.869 28 123.789 27.65C123.709 27.3 123.669 26.99 123.669 26.72C123.669 26.46 123.719 26.185 123.819 25.895C123.919 25.605 124.089 25.3 124.329 24.98L127.884 20.24ZM141.36 20.24C141.72 19.76 142.13 19.265 142.59 18.755C143.05 18.235 143.45 17.79 143.79 17.42L143.7 17.27C143.33 17.31 142.925 17.35 142.485 17.39C142.045 17.42 141.605 17.445 141.165 17.465C140.735 17.485 140.335 17.495 139.965 17.495H137.655C137.595 17.265 137.55 17.025 137.52 16.775C137.5 16.525 137.49 16.29 137.49 16.07C137.49 15.71 137.515 15.36 137.565 15.02C137.615 14.67 137.675 14.34 137.745 14.03H148.215C148.405 14.59 148.55 15.075 148.65 15.485C148.76 15.895 148.815 16.265 148.815 16.595C148.815 16.805 148.78 17.04 148.71 17.3C148.64 17.55 148.53 17.775 148.38 17.975L144.705 22.82C144.365 23.26 144 23.725 143.61 24.215C143.22 24.695 142.83 25.13 142.44 25.52L142.53 25.67C142.96 25.61 143.365 25.565 143.745 25.535C144.135 25.505 144.52 25.49 144.9 25.49H145.935C146.395 25.49 146.87 25.46 147.36 25.4C147.86 25.33 148.32 25.195 148.74 24.995C148.91 25.395 149.03 25.74 149.1 26.03C149.18 26.31 149.22 26.61 149.22 26.93C149.22 27.55 149.035 28.05 148.665 28.43C148.295 28.81 147.645 29 146.715 29H137.67C137.48 28.45 137.345 28 137.265 27.65C137.185 27.3 137.145 26.99 137.145 26.72C137.145 26.46 137.195 26.185 137.295 25.895C137.395 25.605 137.565 25.3 137.805 24.98L141.36 20.24ZM160.942 28.595C160.582 29.965 160.127 31.17 159.577 32.21C159.027 33.26 158.277 34.08 157.327 34.67C156.377 35.27 155.127 35.57 153.577 35.57C152.977 35.57 152.322 35.505 151.612 35.375C150.902 35.245 150.342 35.105 149.932 34.955C149.872 34.425 149.937 33.825 150.127 33.155C150.317 32.485 150.567 31.97 150.877 31.61C151.197 31.71 151.602 31.81 152.092 31.91C152.582 32.02 153.077 32.075 153.577 32.075C154.077 32.075 154.517 31.975 154.897 31.775C155.287 31.585 155.617 31.305 155.887 30.935C156.157 30.575 156.367 30.145 156.517 29.645L156.637 29.21C155.827 29.2 155.152 29.06 154.612 28.79C154.072 28.52 153.707 28.03 153.517 27.32L150.022 14.39C150.502 14.18 151.007 14.025 151.537 13.925C152.067 13.815 152.527 13.76 152.917 13.76C153.487 13.76 153.957 13.9 154.327 14.18C154.707 14.46 154.992 14.99 155.182 15.77L156.592 21.545C156.682 21.875 156.767 22.29 156.847 22.79C156.937 23.28 157.017 23.77 157.087 24.26C157.157 24.74 157.212 25.145 157.252 25.475C157.282 25.615 157.367 25.685 157.507 25.685L160.117 14.045C160.377 13.975 160.677 13.925 161.017 13.895C161.357 13.865 161.672 13.85 161.962 13.85C162.362 13.85 162.772 13.875 163.192 13.925C163.622 13.965 164.047 14.055 164.467 14.195L164.647 14.51L160.942 28.595Z" fill="white"></path><path d="M35.4774 13.8069L32.3547 10.936V3.20462C32.3547 2.52466 31.8006 1.97062 31.1207 1.97062H26.9402C26.1847 1.97062 25.5803 2.57503 25.5803 3.33053V4.69045L22.4071 1.71878C19.914 -0.572927 16.1112 -0.572927 13.6181 1.71878L0.52257 13.8069C0.0188977 14.2602 -0.132204 14.9654 0.119632 15.595C0.371468 16.2245 0.975875 16.6275 1.63065 16.6275H3.31795C3.26758 17.0808 3.2424 17.5593 3.2424 18.0378V23.1249C3.2424 31.234 9.89087 37.8825 18 37.8825C26.1091 37.8825 32.7576 31.234 32.7576 23.1249V18.063C32.7576 17.5845 32.7324 17.106 32.682 16.6527H34.3694C35.0493 16.6527 35.6537 16.2497 35.8804 15.6201C36.1322 14.9905 35.9811 14.2854 35.4774 13.8069ZM18.8311 14.2854C19.6621 12.724 21.425 12.0441 22.8101 12.7744C24.1952 13.5047 24.6485 15.3431 23.8174 16.9045C22.9864 18.4659 21.2235 19.1458 19.8384 18.4155C18.4533 17.6852 18 15.8468 18.8311 14.2854ZM13.1899 12.7744C14.575 12.0441 16.3631 12.724 17.1689 14.2854C18 15.8468 17.5467 17.7104 16.1616 18.4155C14.7765 19.1458 12.9885 18.4659 12.1826 16.9045C11.3515 15.3431 11.8048 13.4795 13.1899 12.7744ZM8.0021 20.5309C7.29696 19.1962 7.6999 17.6096 8.85835 17.0052C10.0672 16.3756 11.5782 16.9549 12.2833 18.2896C12.9885 19.6243 12.5855 21.2109 11.4271 21.8153C10.2434 22.4449 8.70725 21.8657 8.0021 20.5309ZM18 32.5183C16.1112 32.468 10.9486 32.468 10.9486 27.8846C10.9486 22.6212 15.1291 19.6747 18 19.6747C20.8709 19.6747 25.0514 22.6212 25.0514 27.8846C25.0766 32.468 19.8888 32.468 18 32.5183ZM27.9979 20.5309C27.2928 21.8657 25.7817 22.4449 24.5981 21.8153C23.4145 21.1857 23.0367 19.6243 23.7419 18.2896C24.447 16.9549 25.958 16.3756 27.1417 17.0052C28.3253 17.6348 28.703 19.1962 27.9979 20.5309Z" fill="white"></path></svg>